<svg xmlns="http://www.w3.org/2000/svg" viewBox="0 0 512 512" role="img" aria-labelledby="title desc">
  <title id="title">Paddle Today river mark</title>
  <desc id="desc">A canoe on river waves under the sun.</desc>
  <defs>
    <linearGradient id="waveA" x1="64" y1="160" x2="248" y2="320" gradientUnits="userSpaceOnUse">
      <stop offset="0" stop-color="#90c7ca"/>
      <stop offset="1" stop-color="#6aa7ae"/>
    </linearGradient>
    <linearGradient id="waveB" x1="264" y1="186" x2="460" y2="344" gradientUnits="userSpaceOnUse">
      <stop offset="0" stop-color="#8cc4c9"/>
      <stop offset="1" stop-color="#5e99a2"/>
    </linearGradient>
    <linearGradient id="waveC" x1="88" y1="304" x2="428" y2="404" gradientUnits="userSpaceOnUse">
      <stop offset="0" stop-color="#8cbfc3"/>
      <stop offset="1" stop-color="#6ba5ad"/>
    </linearGradient>
    <linearGradient id="canoeFill" x1="184" y1="216" x2="386" y2="308" gradientUnits="userSpaceOnUse">
      <stop offset="0" stop-color="#0c5a71"/>
      <stop offset="1" stop-color="#083f57"/>
    </linearGradient>
    <linearGradient id="sunFill" x1="286" y1="68" x2="396" y2="178" gradientUnits="userSpaceOnUse">
      <stop offset="0" stop-color="#ffd24d"/>
      <stop offset="1" stop-color="#efb626"/>
    </linearGradient>
    <filter id="softShadow" x="-20%" y="-20%" width="140%" height="140%">
      <feDropShadow dx="0" dy="10" stdDeviation="10" flood-color="#14313f" flood-opacity=".14"/>
    </filter>
  </defs>

  <g filter="url(#softShadow)">
    <path fill="url(#waveA)" d="M40 276c44-8 68-46 116-90 28-26 61-43 92-43 20 0 39 8 50 26 14 23 3 49-12 49-11 0-16-10-22-21-8-15-19-22-34-22-20 0-41 13-64 34-35 33-59 67-126 67V276z"/>
    <path fill="url(#waveB)" d="M242 295c30-7 51-27 73-49 19-20 40-38 63-38 18 0 31 7 42 21 14 18 14 39 2 45-9 5-18 0-26-8-9-9-16-15-28-15-14 0-29 11-44 26-22 22-40 51-82 51v-33z"/>
    <path fill="url(#waveC)" d="M54 349c28 0 49-12 66-22 21-12 39-22 62-22 26 0 45 8 64 16 20 9 41 17 70 17 26 0 44-7 61-14 18-7 34-14 57-14 26 0 47 8 66 16l-18 30c-15-6-29-10-47-10-17 0-30 5-45 11-19 8-41 17-74 17-37 0-64-10-86-19-18-7-34-14-52-14-13 0-26 4-44 15-19 11-43 24-80 24l0-31z"/>
    <path fill="#7eb8bc" d="M76 399c21 0 40-7 59-15 23-9 46-18 78-18 27 0 47 6 67 12 18 6 36 12 58 12 25 0 41-6 57-12 17-6 34-12 58-12 27 0 46 7 65 15l-20 25c-13-5-27-9-46-9-18 0-32 5-47 10-18 7-37 14-67 14-26 0-48-7-67-12-18-6-35-11-58-11-26 0-45 7-65 14-20 8-41 16-72 16l0-29z"/>
    <path fill="#f8faf9" d="M133 322c28 0 42-12 59-26 18-15 39-32 79-32 39 0 57 14 72 25 13 9 24 18 48 18 21 0 31-7 45-16 15-10 32-22 63-22v17c-26 0-40 9-54 18-14 9-29 20-54 20-31 0-47-12-61-22-14-10-27-21-61-21-34 0-50 13-67 27-18 15-37 31-70 31-22 0-37-7-50-13-14-6-27-12-48-12v-16c24 0 39 7 53 13 13 6 25 10 46 10z"/>
  </g>

  <g transform="translate(0 2)" filter="url(#softShadow)">
    <circle cx="350" cy="128" r="50" fill="url(#sunFill)"/>
    <g stroke="#e1b028" stroke-width="9" stroke-linecap="round">
      <line x1="350" y1="40" x2="350" y2="68"/>
      <line x1="350" y1="188" x2="350" y2="216"/>
      <line x1="262" y1="128" x2="290" y2="128"/>
      <line x1="410" y1="128" x2="438" y2="128"/>
      <line x1="289" y1="67" x2="307" y2="87"/>
      <line x1="393" y1="169" x2="411" y2="189"/>
      <line x1="289" y1="189" x2="307" y2="169"/>
      <line x1="393" y1="87" x2="411" y2="67"/>
      <line x1="314" y1="53" x2="324" y2="78"/>
      <line x1="386" y1="178" x2="396" y2="203"/>
      <line x1="423" y1="153" x2="448" y2="163"/>
      <line x1="252" y1="94" x2="277" y2="104"/>
    </g>
  </g>

  <g filter="url(#softShadow)">
    <path fill="none" stroke="#fff" stroke-width="10" stroke-linecap="round" d="M170 246c0-44 33-76 79-76 30 0 56 14 73 39"/>
    <path fill="url(#canoeFill)" d="M176 250c10 0 23 0 39-1 23-1 49-2 77-2 38 0 74 3 108 10-6 24-19 40-38 49-15 7-36 11-63 11-47 0-79-7-99-22-15-11-23-26-24-45z"/>
    <path fill="#f6fbfd" d="M190 258c30-1 66-4 104-4 31 0 60 2 88 7-8 15-19 26-34 32-14 6-33 9-59 9-37 0-65-5-83-16-9-6-14-15-16-28z" opacity=".14"/>
    <path fill="none" stroke="#123f55" stroke-width="8" stroke-linecap="round" d="M184 250c39 0 81-4 123-4 32 0 60 2 85 8"/>
    <g transform="translate(300 244) rotate(-42)">
      <rect x="0" y="0" width="9" height="118" rx="4.5" fill="#0f536c"/>
      <path fill="#e4b333" d="M-12 104c0-14 10-24 24-24s24 10 24 24c0 12-9 21-20 24l-4 18H0l-4-18c-11-3-20-12-20-24z"/>
      <path fill="#d79f22" d="M8 81c11 0 20 9 20 20 0 8-5 15-12 18l-2 9H2l-2-9c-7-3-12-10-12-18 0-11 9-20 20-20z"/>
    </g>
  </g>
</svg>
